<svg xmlns="http://www.w3.org/2000/svg" width="682" height="388" viewBox="0 0 682 388" font-family="system-ui,-apple-system,'Segoe UI',sans-serif">
<rect width="682" height="388" fill="#1a1a19"/>
<text x="0" y="20" font-size="15" font-weight="600" fill="#ffffff">sgemv: y = A x</text>
<text x="0" y="38" font-size="11.5" fill="#c3c2b7">achieved bandwidth per rung, by matrix shape (GB/s)</text>
<circle cx="4" cy="54" r="4" fill="#3987e5"/>
<text x="13" y="58" font-size="10.5" fill="#c3c2b7">ported from the CUDA original</text>
<circle cx="195.45" cy="54" r="4" fill="#d95926"/>
<text x="204.45" y="58" font-size="10.5" fill="#c3c2b7">added for CDNA</text>
<text x="0" y="78" font-size="12.5" font-weight="600" fill="#c3c2b7">M=16384,N=16</text>
<line x1="178.0" y1="88" x2="178.0" y2="106" stroke="#2c2c2a" stroke-width="1"/>
<text x="178.0" y="121" font-size="10.5" text-anchor="middle" fill="#898781" style="font-variant-numeric:tabular-nums">0</text>
<line x1="285.5" y1="88" x2="285.5" y2="106" stroke="#2c2c2a" stroke-width="1"/>
<text x="285.5" y="121" font-size="10.5" text-anchor="middle" fill="#898781" style="font-variant-numeric:tabular-nums">50</text>
<line x1="393.0" y1="88" x2="393.0" y2="106" stroke="#2c2c2a" stroke-width="1"/>
<text x="393.0" y="121" font-size="10.5" text-anchor="middle" fill="#898781" style="font-variant-numeric:tabular-nums">100</text>
<line x1="500.5" y1="88" x2="500.5" y2="106" stroke="#2c2c2a" stroke-width="1"/>
<text x="500.5" y="121" font-size="10.5" text-anchor="middle" fill="#898781" style="font-variant-numeric:tabular-nums">150</text>
<line x1="608.0" y1="88" x2="608.0" y2="106" stroke="#2c2c2a" stroke-width="1"/>
<text x="608.0" y="121" font-size="10.5" text-anchor="middle" fill="#898781" style="font-variant-numeric:tabular-nums">200</text>
<line x1="178" y1="88" x2="178" y2="106" stroke="#383835" stroke-width="1"/>
<path d="M178 88 H502.3 a4.0 4.0 0 0 1 4.0 4.0 V102.0 a4.0 4.0 0 0 1 -4.0 4.0 H178 Z" fill="#3987e5"/>
<text x="169" y="101.0" font-size="11" text-anchor="end" fill="#c3c2b7">v2_subwave_per_row</text>
<text x="513.3" y="101.0" font-size="11" font-weight="600" fill="#ffffff" style="font-variant-numeric:tabular-nums">153</text>
<line x1="361.8" y1="83" x2="361.8" y2="109" stroke="#c3c2b7" stroke-width="1.5" stroke-dasharray="5 3"/>
<text x="366.8" y="79" font-size="10.5" fill="#c3c2b7">torch / rocBLAS</text>
<text x="0" y="150" font-size="12.5" font-weight="600" fill="#c3c2b7">M=16384,N=256</text>
<line x1="178.0" y1="160" x2="178.0" y2="206" stroke="#2c2c2a" stroke-width="1"/>
<text x="178.0" y="221" font-size="10.5" text-anchor="middle" fill="#898781" style="font-variant-numeric:tabular-nums">0</text>
<line x1="321.3" y1="160" x2="321.3" y2="206" stroke="#2c2c2a" stroke-width="1"/>
<text x="321.3" y="221" font-size="10.5" text-anchor="middle" fill="#898781" style="font-variant-numeric:tabular-nums">1,000</text>
<line x1="464.7" y1="160" x2="464.7" y2="206" stroke="#2c2c2a" stroke-width="1"/>
<text x="464.7" y="221" font-size="10.5" text-anchor="middle" fill="#898781" style="font-variant-numeric:tabular-nums">2,000</text>
<line x1="608.0" y1="160" x2="608.0" y2="206" stroke="#2c2c2a" stroke-width="1"/>
<text x="608.0" y="221" font-size="10.5" text-anchor="middle" fill="#898781" style="font-variant-numeric:tabular-nums">3,000</text>
<line x1="178" y1="160" x2="178" y2="206" stroke="#383835" stroke-width="1"/>
<path d="M178 160 H507.8 a4.0 4.0 0 0 1 4.0 4.0 V174.0 a4.0 4.0 0 0 1 -4.0 4.0 H178 Z" fill="#3987e5"/>
<text x="169" y="173.0" font-size="11" text-anchor="end" fill="#c3c2b7">v0_wave_per_row</text>
<text x="518.8" y="173.0" font-size="11" font-weight="400" fill="#c3c2b7" style="font-variant-numeric:tabular-nums">2,329</text>
<path d="M178 188 H509.1 a4.0 4.0 0 0 1 4.0 4.0 V202.0 a4.0 4.0 0 0 1 -4.0 4.0 H178 Z" fill="#3987e5"/>
<text x="169" y="201.0" font-size="11" text-anchor="end" fill="#c3c2b7">v1_wave_per_row_vec4</text>
<text x="520.1" y="201.0" font-size="11" font-weight="600" fill="#ffffff" style="font-variant-numeric:tabular-nums">2,338</text>
<line x1="352.7" y1="155" x2="352.7" y2="209" stroke="#c3c2b7" stroke-width="1.5" stroke-dasharray="5 3"/>
<text x="357.7" y="151" font-size="10.5" fill="#c3c2b7">torch / rocBLAS</text>
<text x="0" y="250" font-size="12.5" font-weight="600" fill="#c3c2b7">M=16384,N=4096</text>
<line x1="178.0" y1="260" x2="178.0" y2="334" stroke="#2c2c2a" stroke-width="1"/>
<text x="178.0" y="349" font-size="10.5" text-anchor="middle" fill="#898781" style="font-variant-numeric:tabular-nums">0</text>
<line x1="285.5" y1="260" x2="285.5" y2="334" stroke="#2c2c2a" stroke-width="1"/>
<text x="285.5" y="349" font-size="10.5" text-anchor="middle" fill="#898781" style="font-variant-numeric:tabular-nums">2,000</text>
<line x1="393.0" y1="260" x2="393.0" y2="334" stroke="#2c2c2a" stroke-width="1"/>
<text x="393.0" y="349" font-size="10.5" text-anchor="middle" fill="#898781" style="font-variant-numeric:tabular-nums">4,000</text>
<line x1="500.5" y1="260" x2="500.5" y2="334" stroke="#2c2c2a" stroke-width="1"/>
<text x="500.5" y="349" font-size="10.5" text-anchor="middle" fill="#898781" style="font-variant-numeric:tabular-nums">6,000</text>
<line x1="608.0" y1="260" x2="608.0" y2="334" stroke="#2c2c2a" stroke-width="1"/>
<text x="608.0" y="349" font-size="10.5" text-anchor="middle" fill="#898781" style="font-variant-numeric:tabular-nums">8,000</text>
<line x1="178" y1="260" x2="178" y2="334" stroke="#383835" stroke-width="1"/>
<path d="M178 260 H563.4 a4.0 4.0 0 0 1 4.0 4.0 V274.0 a4.0 4.0 0 0 1 -4.0 4.0 H178 Z" fill="#3987e5"/>
<text x="169" y="273.0" font-size="11" text-anchor="end" fill="#c3c2b7">v0_wave_per_row</text>
<text x="574.4" y="273.0" font-size="11" font-weight="400" fill="#c3c2b7" style="font-variant-numeric:tabular-nums">7,244</text>
<path d="M178 288 H558.7 a4.0 4.0 0 0 1 4.0 4.0 V302.0 a4.0 4.0 0 0 1 -4.0 4.0 H178 Z" fill="#3987e5"/>
<text x="169" y="301.0" font-size="11" text-anchor="end" fill="#c3c2b7">v1_wave_per_row_vec4</text>
<path d="M178 316 H572.6 a4.0 4.0 0 0 1 4.0 4.0 V330.0 a4.0 4.0 0 0 1 -4.0 4.0 H178 Z" fill="#d95926"/>
<text x="169" y="329.0" font-size="11" text-anchor="end" fill="#c3c2b7">v3_block_per_row</text>
<text x="583.6" y="329.0" font-size="11" font-weight="600" fill="#ffffff" style="font-variant-numeric:tabular-nums">7,415</text>
<line x1="430.5" y1="255" x2="430.5" y2="337" stroke="#c3c2b7" stroke-width="1.5" stroke-dasharray="5 3"/>
<text x="435.5" y="251" font-size="10.5" fill="#c3c2b7">torch / rocBLAS</text>
</svg>