<svg xmlns="http://www.w3.org/2000/svg" width="682" height="472" viewBox="0 0 682 472" font-family="system-ui,-apple-system,'Segoe UI',sans-serif">
<rect width="682" height="472" fill="#fcfcfb"/>
<text x="0" y="20" font-size="15" font-weight="600" fill="#0b0b0b">spmm: C = A_csr B</text>
<text x="0" y="38" font-size="11.5" fill="#52514e">throughput per rung, by dense width and sparsity pattern (GFLOP/s)</text>
<circle cx="4" cy="54" r="4" fill="#2a78d6"/>
<text x="13" y="58" font-size="10.5" fill="#52514e">ported from the CUDA original</text>
<circle cx="195.45" cy="54" r="4" fill="#eb6834"/>
<text x="204.45" y="58" font-size="10.5" fill="#52514e">added for CDNA</text>
<text x="0" y="78" font-size="12.5" font-weight="600" fill="#52514e">4096x4096, 32nnz, n=256</text>
<line x1="178.0" y1="88" x2="178.0" y2="162" stroke="#e1e0d9" stroke-width="1"/>
<text x="178.0" y="177" font-size="10.5" text-anchor="middle" fill="#898781" style="font-variant-numeric:tabular-nums">0</text>
<line x1="321.3" y1="88" x2="321.3" y2="162" stroke="#e1e0d9" stroke-width="1"/>
<text x="321.3" y="177" font-size="10.5" text-anchor="middle" fill="#898781" style="font-variant-numeric:tabular-nums">2,000</text>
<line x1="464.7" y1="88" x2="464.7" y2="162" stroke="#e1e0d9" stroke-width="1"/>
<text x="464.7" y="177" font-size="10.5" text-anchor="middle" fill="#898781" style="font-variant-numeric:tabular-nums">4,000</text>
<line x1="608.0" y1="88" x2="608.0" y2="162" stroke="#e1e0d9" stroke-width="1"/>
<text x="608.0" y="177" font-size="10.5" text-anchor="middle" fill="#898781" style="font-variant-numeric:tabular-nums">6,000</text>
<line x1="178" y1="88" x2="178" y2="162" stroke="#c3c2b7" stroke-width="1"/>
<path d="M178 88 H347.7 a4.0 4.0 0 0 1 4.0 4.0 V102.0 a4.0 4.0 0 0 1 -4.0 4.0 H178 Z" fill="#2a78d6"/>
<text x="169" y="101.0" font-size="11" text-anchor="end" fill="#52514e">v0_scalar</text>
<text x="358.7" y="101.0" font-size="11" font-weight="400" fill="#52514e" style="font-variant-numeric:tabular-nums">2,423</text>
<path d="M178 116 H298.8 a4.0 4.0 0 0 1 4.0 4.0 V130.0 a4.0 4.0 0 0 1 -4.0 4.0 H178 Z" fill="#2a78d6"/>
<text x="169" y="129.0" font-size="11" text-anchor="end" fill="#52514e">v1_lds_row</text>
<path d="M178 144 H473.5 a4.0 4.0 0 0 1 4.0 4.0 V158.0 a4.0 4.0 0 0 1 -4.0 4.0 H178 Z" fill="#eb6834"/>
<text x="169" y="157.0" font-size="11" text-anchor="end" fill="#52514e">v2_vec4</text>
<text x="484.5" y="157.0" font-size="11" font-weight="600" fill="#0b0b0b" style="font-variant-numeric:tabular-nums">4,180</text>
<line x1="215.7" y1="83" x2="215.7" y2="165" stroke="#52514e" stroke-width="1.5" stroke-dasharray="5 3"/>
<text x="220.7" y="79" font-size="10.5" fill="#52514e">torch / rocBLAS</text>
<text x="0" y="206" font-size="12.5" font-weight="600" fill="#52514e">4096x4096, 32nnz, n=1024</text>
<line x1="178.0" y1="216" x2="178.0" y2="290" stroke="#e1e0d9" stroke-width="1"/>
<text x="178.0" y="305" font-size="10.5" text-anchor="middle" fill="#898781" style="font-variant-numeric:tabular-nums">0</text>
<line x1="285.5" y1="216" x2="285.5" y2="290" stroke="#e1e0d9" stroke-width="1"/>
<text x="285.5" y="305" font-size="10.5" text-anchor="middle" fill="#898781" style="font-variant-numeric:tabular-nums">2,000</text>
<line x1="393.0" y1="216" x2="393.0" y2="290" stroke="#e1e0d9" stroke-width="1"/>
<text x="393.0" y="305" font-size="10.5" text-anchor="middle" fill="#898781" style="font-variant-numeric:tabular-nums">4,000</text>
<line x1="500.5" y1="216" x2="500.5" y2="290" stroke="#e1e0d9" stroke-width="1"/>
<text x="500.5" y="305" font-size="10.5" text-anchor="middle" fill="#898781" style="font-variant-numeric:tabular-nums">6,000</text>
<line x1="608.0" y1="216" x2="608.0" y2="290" stroke="#e1e0d9" stroke-width="1"/>
<text x="608.0" y="305" font-size="10.5" text-anchor="middle" fill="#898781" style="font-variant-numeric:tabular-nums">8,000</text>
<line x1="178" y1="216" x2="178" y2="290" stroke="#c3c2b7" stroke-width="1"/>
<path d="M178 216 H313.3 a4.0 4.0 0 0 1 4.0 4.0 V230.0 a4.0 4.0 0 0 1 -4.0 4.0 H178 Z" fill="#2a78d6"/>
<text x="169" y="229.0" font-size="11" text-anchor="end" fill="#52514e">v0_scalar</text>
<text x="324.3" y="229.0" font-size="11" font-weight="400" fill="#52514e" style="font-variant-numeric:tabular-nums">2,592</text>
<path d="M178 244 H273.1 a4.0 4.0 0 0 1 4.0 4.0 V258.0 a4.0 4.0 0 0 1 -4.0 4.0 H178 Z" fill="#2a78d6"/>
<text x="169" y="257.0" font-size="11" text-anchor="end" fill="#52514e">v1_lds_row</text>
<path d="M178 272 H506.6 a4.0 4.0 0 0 1 4.0 4.0 V286.0 a4.0 4.0 0 0 1 -4.0 4.0 H178 Z" fill="#eb6834"/>
<text x="169" y="285.0" font-size="11" text-anchor="end" fill="#52514e">v2_vec4</text>
<text x="517.6" y="285.0" font-size="11" font-weight="600" fill="#0b0b0b" style="font-variant-numeric:tabular-nums">6,188</text>
<line x1="214.5" y1="211" x2="214.5" y2="293" stroke="#52514e" stroke-width="1.5" stroke-dasharray="5 3"/>
<text x="219.5" y="207" font-size="10.5" fill="#52514e">torch / rocBLAS</text>
<text x="0" y="334" font-size="12.5" font-weight="600" fill="#52514e">4096x4096, skewed, n=256</text>
<line x1="178.0" y1="344" x2="178.0" y2="418" stroke="#e1e0d9" stroke-width="1"/>
<text x="178.0" y="433" font-size="10.5" text-anchor="middle" fill="#898781" style="font-variant-numeric:tabular-nums">0</text>
<line x1="285.5" y1="344" x2="285.5" y2="418" stroke="#e1e0d9" stroke-width="1"/>
<text x="285.5" y="433" font-size="10.5" text-anchor="middle" fill="#898781" style="font-variant-numeric:tabular-nums">100</text>
<line x1="393.0" y1="344" x2="393.0" y2="418" stroke="#e1e0d9" stroke-width="1"/>
<text x="393.0" y="433" font-size="10.5" text-anchor="middle" fill="#898781" style="font-variant-numeric:tabular-nums">200</text>
<line x1="500.5" y1="344" x2="500.5" y2="418" stroke="#e1e0d9" stroke-width="1"/>
<text x="500.5" y="433" font-size="10.5" text-anchor="middle" fill="#898781" style="font-variant-numeric:tabular-nums">300</text>
<line x1="608.0" y1="344" x2="608.0" y2="418" stroke="#e1e0d9" stroke-width="1"/>
<text x="608.0" y="433" font-size="10.5" text-anchor="middle" fill="#898781" style="font-variant-numeric:tabular-nums">400</text>
<line x1="178" y1="344" x2="178" y2="418" stroke="#c3c2b7" stroke-width="1"/>
<path d="M178 344 H261.8 a4.0 4.0 0 0 1 4.0 4.0 V358.0 a4.0 4.0 0 0 1 -4.0 4.0 H178 Z" fill="#2a78d6"/>
<text x="169" y="357.0" font-size="11" text-anchor="end" fill="#52514e">v0_scalar</text>
<text x="272.8" y="357.0" font-size="11" font-weight="400" fill="#52514e" style="font-variant-numeric:tabular-nums">81.7</text>
<path d="M178 372 H576.7 a4.0 4.0 0 0 1 4.0 4.0 V386.0 a4.0 4.0 0 0 1 -4.0 4.0 H178 Z" fill="#2a78d6"/>
<text x="169" y="385.0" font-size="11" text-anchor="end" fill="#52514e">v1_lds_row</text>
<text x="587.7" y="385.0" font-size="11" font-weight="600" fill="#0b0b0b" style="font-variant-numeric:tabular-nums">375</text>
<path d="M178 400 H272.1 a4.0 4.0 0 0 1 4.0 4.0 V414.0 a4.0 4.0 0 0 1 -4.0 4.0 H178 Z" fill="#eb6834"/>
<text x="169" y="413.0" font-size="11" text-anchor="end" fill="#52514e">v2_vec4</text>
<line x1="369.7" y1="339" x2="369.7" y2="421" stroke="#52514e" stroke-width="1.5" stroke-dasharray="5 3"/>
<text x="374.7" y="335" font-size="10.5" fill="#52514e">torch / rocBLAS</text>
</svg>