<svg xmlns="http://www.w3.org/2000/svg" width="948" height="350" viewBox="0 0 948 350" font-family="system-ui,-apple-system,'Segoe UI',sans-serif">
<rect width="948" height="350" fill="#1a1a19"/>
<text x="0" y="17" font-size="13" font-weight="600" fill="#ffffff">reduce v6 -- serial accumulate</text>
<text x="0" y="34" font-size="10.5" fill="#c3c2b7">each thread streams N/(1024*256) elements into a register first</text>
<text x="94" y="68" font-size="10.5" text-anchor="end" fill="#c3c2b7">global</text>
<text x="94" y="79" font-size="9" text-anchor="end" fill="#898781">step 0</text>
<rect x="104" y="54" width="26" height="20" rx="3" fill="#3987e5" stroke="none" stroke-width="1"/>
<text x="117.0" y="68" font-size="9.5" text-anchor="middle" fill="#1a1a19">t0</text>
<rect x="134" y="54" width="26" height="20" rx="3" fill="#3987e5" stroke="none" stroke-width="1"/>
<text x="147.0" y="68" font-size="9.5" text-anchor="middle" fill="#1a1a19">t1</text>
<rect x="164" y="54" width="26" height="20" rx="3" fill="#3987e5" stroke="none" stroke-width="1"/>
<text x="177.0" y="68" font-size="9.5" text-anchor="middle" fill="#1a1a19">t2</text>
<rect x="194" y="54" width="26" height="20" rx="3" fill="#3987e5" stroke="none" stroke-width="1"/>
<text x="207.0" y="68" font-size="9.5" text-anchor="middle" fill="#1a1a19">t3</text>
<rect x="224" y="54" width="26" height="20" rx="3" fill="#3987e5" stroke="none" stroke-width="1"/>
<text x="237.0" y="68" font-size="9.5" text-anchor="middle" fill="#1a1a19">t4</text>
<rect x="254" y="54" width="26" height="20" rx="3" fill="#3987e5" stroke="none" stroke-width="1"/>
<text x="267.0" y="68" font-size="9.5" text-anchor="middle" fill="#1a1a19">t5</text>
<rect x="284" y="54" width="26" height="20" rx="3" fill="#3987e5" stroke="none" stroke-width="1"/>
<text x="297.0" y="68" font-size="9.5" text-anchor="middle" fill="#1a1a19">t6</text>
<rect x="314" y="54" width="26" height="20" rx="3" fill="#3987e5" stroke="none" stroke-width="1"/>
<text x="327.0" y="68" font-size="9.5" text-anchor="middle" fill="#1a1a19">t7</text>
<path d="M105 60 V55 H129 V60" fill="none" stroke="#c3c2b7" stroke-width="1.2"/>
<text x="117" y="51" font-size="9" text-anchor="middle" fill="#c3c2b7">dword</text>
<path d="M135 60 V55 H159 V60" fill="none" stroke="#c3c2b7" stroke-width="1.2"/>
<text x="147" y="51" font-size="9" text-anchor="middle" fill="#c3c2b7"></text>
<path d="M165 60 V55 H189 V60" fill="none" stroke="#c3c2b7" stroke-width="1.2"/>
<text x="177" y="51" font-size="9" text-anchor="middle" fill="#c3c2b7"></text>
<path d="M195 60 V55 H219 V60" fill="none" stroke="#c3c2b7" stroke-width="1.2"/>
<text x="207" y="51" font-size="9" text-anchor="middle" fill="#c3c2b7"></text>
<path d="M225 60 V55 H249 V60" fill="none" stroke="#c3c2b7" stroke-width="1.2"/>
<text x="237" y="51" font-size="9" text-anchor="middle" fill="#c3c2b7"></text>
<path d="M255 60 V55 H279 V60" fill="none" stroke="#c3c2b7" stroke-width="1.2"/>
<text x="267" y="51" font-size="9" text-anchor="middle" fill="#c3c2b7"></text>
<path d="M285 60 V55 H309 V60" fill="none" stroke="#c3c2b7" stroke-width="1.2"/>
<text x="297" y="51" font-size="9" text-anchor="middle" fill="#c3c2b7"></text>
<path d="M315 60 V55 H339 V60" fill="none" stroke="#c3c2b7" stroke-width="1.2"/>
<text x="327" y="51" font-size="9" text-anchor="middle" fill="#c3c2b7"></text>
<text x="94" y="112" font-size="10.5" text-anchor="end" fill="#c3c2b7"></text>
<text x="94" y="123" font-size="9" text-anchor="end" fill="#898781">step 1</text>
<rect x="104" y="98" width="26" height="20" rx="3" fill="#3987e5" stroke="none" stroke-width="1"/>
<text x="117.0" y="112" font-size="9.5" text-anchor="middle" fill="#1a1a19">t0</text>
<rect x="134" y="98" width="26" height="20" rx="3" fill="#3987e5" stroke="none" stroke-width="1"/>
<text x="147.0" y="112" font-size="9.5" text-anchor="middle" fill="#1a1a19">t1</text>
<rect x="164" y="98" width="26" height="20" rx="3" fill="#3987e5" stroke="none" stroke-width="1"/>
<text x="177.0" y="112" font-size="9.5" text-anchor="middle" fill="#1a1a19">t2</text>
<rect x="194" y="98" width="26" height="20" rx="3" fill="#3987e5" stroke="none" stroke-width="1"/>
<text x="207.0" y="112" font-size="9.5" text-anchor="middle" fill="#1a1a19">t3</text>
<rect x="224" y="98" width="26" height="20" rx="3" fill="#3987e5" stroke="none" stroke-width="1"/>
<text x="237.0" y="112" font-size="9.5" text-anchor="middle" fill="#1a1a19">t4</text>
<rect x="254" y="98" width="26" height="20" rx="3" fill="#3987e5" stroke="none" stroke-width="1"/>
<text x="267.0" y="112" font-size="9.5" text-anchor="middle" fill="#1a1a19">t5</text>
<rect x="284" y="98" width="26" height="20" rx="3" fill="#3987e5" stroke="none" stroke-width="1"/>
<text x="297.0" y="112" font-size="9.5" text-anchor="middle" fill="#1a1a19">t6</text>
<rect x="314" y="98" width="26" height="20" rx="3" fill="#3987e5" stroke="none" stroke-width="1"/>
<text x="327.0" y="112" font-size="9.5" text-anchor="middle" fill="#1a1a19">t7</text>
<text x="94" y="156" font-size="10.5" text-anchor="end" fill="#c3c2b7"></text>
<text x="94" y="167" font-size="9" text-anchor="end" fill="#898781">step 2</text>
<rect x="104" y="142" width="26" height="20" rx="3" fill="#3987e5" stroke="none" stroke-width="1"/>
<text x="117.0" y="156" font-size="9.5" text-anchor="middle" fill="#1a1a19">t0</text>
<rect x="134" y="142" width="26" height="20" rx="3" fill="#3987e5" stroke="none" stroke-width="1"/>
<text x="147.0" y="156" font-size="9.5" text-anchor="middle" fill="#1a1a19">t1</text>
<rect x="164" y="142" width="26" height="20" rx="3" fill="#3987e5" stroke="none" stroke-width="1"/>
<text x="177.0" y="156" font-size="9.5" text-anchor="middle" fill="#1a1a19">t2</text>
<rect x="194" y="142" width="26" height="20" rx="3" fill="#3987e5" stroke="none" stroke-width="1"/>
<text x="207.0" y="156" font-size="9.5" text-anchor="middle" fill="#1a1a19">t3</text>
<rect x="224" y="142" width="26" height="20" rx="3" fill="#3987e5" stroke="none" stroke-width="1"/>
<text x="237.0" y="156" font-size="9.5" text-anchor="middle" fill="#1a1a19">t4</text>
<rect x="254" y="142" width="26" height="20" rx="3" fill="#3987e5" stroke="none" stroke-width="1"/>
<text x="267.0" y="156" font-size="9.5" text-anchor="middle" fill="#1a1a19">t5</text>
<rect x="284" y="142" width="26" height="20" rx="3" fill="#3987e5" stroke="none" stroke-width="1"/>
<text x="297.0" y="156" font-size="9.5" text-anchor="middle" fill="#1a1a19">t6</text>
<rect x="314" y="142" width="26" height="20" rx="3" fill="#3987e5" stroke="none" stroke-width="1"/>
<text x="327.0" y="156" font-size="9.5" text-anchor="middle" fill="#1a1a19">t7</text>
<text x="104" y="186" font-size="10" fill="#898781">... each step advances by a whole block, so every wavefront issues one fully coalesced request per step</text>
<text x="94" y="224" font-size="10.5" text-anchor="end" fill="#c3c2b7">register</text>
<rect x="104" y="210" width="26" height="20" rx="3" fill="#3987e5" stroke="none" stroke-width="1"/>
<text x="117.0" y="224" font-size="9.5" text-anchor="middle" fill="#1a1a19">t0</text>
<rect x="134" y="210" width="26" height="20" rx="3" fill="#3987e5" stroke="none" stroke-width="1"/>
<text x="147.0" y="224" font-size="9.5" text-anchor="middle" fill="#1a1a19">t1</text>
<rect x="164" y="210" width="26" height="20" rx="3" fill="#3987e5" stroke="none" stroke-width="1"/>
<text x="177.0" y="224" font-size="9.5" text-anchor="middle" fill="#1a1a19">t2</text>
<rect x="194" y="210" width="26" height="20" rx="3" fill="#3987e5" stroke="none" stroke-width="1"/>
<text x="207.0" y="224" font-size="9.5" text-anchor="middle" fill="#1a1a19">t3</text>
<rect x="224" y="210" width="26" height="20" rx="3" fill="#3987e5" stroke="none" stroke-width="1"/>
<text x="237.0" y="224" font-size="9.5" text-anchor="middle" fill="#1a1a19">t4</text>
<rect x="254" y="210" width="26" height="20" rx="3" fill="#3987e5" stroke="none" stroke-width="1"/>
<text x="267.0" y="224" font-size="9.5" text-anchor="middle" fill="#1a1a19">t5</text>
<rect x="284" y="210" width="26" height="20" rx="3" fill="#3987e5" stroke="none" stroke-width="1"/>
<text x="297.0" y="224" font-size="9.5" text-anchor="middle" fill="#1a1a19">t6</text>
<rect x="314" y="210" width="26" height="20" rx="3" fill="#3987e5" stroke="none" stroke-width="1"/>
<text x="327.0" y="224" font-size="9.5" text-anchor="middle" fill="#1a1a19">t7</text>
<path d="M105 216 V211 H339 V216" fill="none" stroke="#c3c2b7" stroke-width="1.2"/>
<text x="222" y="207" font-size="9" text-anchor="middle" fill="#c3c2b7">one accumulator per thread -- the tree is now almost irrelevant</text>
<text x="94" y="272" font-size="10.5" text-anchor="end" fill="#c3c2b7">LDS tree</text>
<rect x="104" y="258" width="26" height="20" rx="3" fill="#3987e5" stroke="none" stroke-width="1"/>
<rect x="134" y="258" width="26" height="20" rx="3" fill="#3987e5" stroke="none" stroke-width="1"/>
<rect x="164" y="258" width="26" height="20" rx="3" fill="#3987e5" stroke="none" stroke-width="1"/>
<rect x="194" y="258" width="26" height="20" rx="3" fill="#3987e5" stroke="none" stroke-width="1"/>
<rect x="224" y="258" width="26" height="20" rx="3" fill="#1a1a19" stroke="#383835" stroke-width="1"/>
<rect x="254" y="258" width="26" height="20" rx="3" fill="#1a1a19" stroke="#383835" stroke-width="1"/>
<rect x="284" y="258" width="26" height="20" rx="3" fill="#1a1a19" stroke="#383835" stroke-width="1"/>
<rect x="314" y="258" width="26" height="20" rx="3" fill="#1a1a19" stroke="#383835" stroke-width="1"/>
<path d="M105 264 V259 H219 V264" fill="none" stroke="#c3c2b7" stroke-width="1.2"/>
<text x="162" y="255" font-size="9" text-anchor="middle" fill="#c3c2b7">the v5 tree, on one value per thread</text>
<text x="104" y="304" font-size="10" fill="#898781">grid fixed at 1024 blocks, as in the CUDA original; 8 lanes shown of 64</text>
<rect x="104" y="318" width="11" height="11" rx="2.5" fill="#3987e5"/>
<text x="120" y="327" font-size="9.5" fill="#c3c2b7">touched</text>
<rect x="164.5" y="318" width="11" height="11" rx="2.5" fill="#d95926"/>
<text x="180.5" y="327" font-size="9.5" fill="#c3c2b7">what changed</text>
<rect x="252.5" y="318" width="11" height="11" rx="2.5" fill="#1a1a19" stroke="#383835" stroke-width="1"/>
<text x="268.5" y="327" font-size="9.5" fill="#c3c2b7">idle</text>
</svg>