<svg xmlns="http://www.w3.org/2000/svg" width="996" height="250" viewBox="0 0 996 250" font-family="system-ui,-apple-system,'Segoe UI',sans-serif">
<rect width="996" height="250" fill="#fcfcfb"/>
<text x="0" y="17" font-size="13" font-weight="600" fill="#0b0b0b">sgemm v4 -- LDS ping-pong</text>
<text x="0" y="34" font-size="10.5" fill="#52514e">one barrier per K-tile instead of two</text>
<text x="94" y="68" font-size="10.5" text-anchor="end" fill="#52514e">C block tile</text>
<rect x="104" y="54" width="22" height="15" rx="2" fill="#eb6834" stroke="none" stroke-width="1"/>
<text x="115.0" y="65" font-size="8.5" text-anchor="middle" fill="#fcfcfb">t0</text>
<rect x="128" y="54" width="22" height="15" rx="2" fill="#eb6834" stroke="none" stroke-width="1"/>
<rect x="152" y="54" width="22" height="15" rx="2" fill="#2a78d6" stroke="none" stroke-width="1"/>
<rect x="176" y="54" width="22" height="15" rx="2" fill="#2a78d6" stroke="none" stroke-width="1"/>
<rect x="200" y="54" width="22" height="15" rx="2" fill="#2a78d6" stroke="none" stroke-width="1"/>
<rect x="224" y="54" width="22" height="15" rx="2" fill="#2a78d6" stroke="none" stroke-width="1"/>
<rect x="248" y="54" width="22" height="15" rx="2" fill="#2a78d6" stroke="none" stroke-width="1"/>
<rect x="272" y="54" width="22" height="15" rx="2" fill="#2a78d6" stroke="none" stroke-width="1"/>
<rect x="104" y="71" width="22" height="15" rx="2" fill="#eb6834" stroke="none" stroke-width="1"/>
<rect x="128" y="71" width="22" height="15" rx="2" fill="#eb6834" stroke="none" stroke-width="1"/>
<rect x="152" y="71" width="22" height="15" rx="2" fill="#2a78d6" stroke="none" stroke-width="1"/>
<rect x="176" y="71" width="22" height="15" rx="2" fill="#2a78d6" stroke="none" stroke-width="1"/>
<rect x="200" y="71" width="22" height="15" rx="2" fill="#2a78d6" stroke="none" stroke-width="1"/>
<rect x="224" y="71" width="22" height="15" rx="2" fill="#2a78d6" stroke="none" stroke-width="1"/>
<rect x="248" y="71" width="22" height="15" rx="2" fill="#2a78d6" stroke="none" stroke-width="1"/>
<rect x="272" y="71" width="22" height="15" rx="2" fill="#2a78d6" stroke="none" stroke-width="1"/>
<rect x="104" y="88" width="22" height="15" rx="2" fill="#2a78d6" stroke="none" stroke-width="1"/>
<rect x="128" y="88" width="22" height="15" rx="2" fill="#2a78d6" stroke="none" stroke-width="1"/>
<rect x="152" y="88" width="22" height="15" rx="2" fill="#2a78d6" stroke="none" stroke-width="1"/>
<rect x="176" y="88" width="22" height="15" rx="2" fill="#2a78d6" stroke="none" stroke-width="1"/>
<rect x="200" y="88" width="22" height="15" rx="2" fill="#2a78d6" stroke="none" stroke-width="1"/>
<rect x="224" y="88" width="22" height="15" rx="2" fill="#2a78d6" stroke="none" stroke-width="1"/>
<rect x="248" y="88" width="22" height="15" rx="2" fill="#2a78d6" stroke="none" stroke-width="1"/>
<rect x="272" y="88" width="22" height="15" rx="2" fill="#2a78d6" stroke="none" stroke-width="1"/>
<rect x="104" y="105" width="22" height="15" rx="2" fill="#2a78d6" stroke="none" stroke-width="1"/>
<rect x="128" y="105" width="22" height="15" rx="2" fill="#2a78d6" stroke="none" stroke-width="1"/>
<rect x="152" y="105" width="22" height="15" rx="2" fill="#2a78d6" stroke="none" stroke-width="1"/>
<rect x="176" y="105" width="22" height="15" rx="2" fill="#2a78d6" stroke="none" stroke-width="1"/>
<rect x="200" y="105" width="22" height="15" rx="2" fill="#2a78d6" stroke="none" stroke-width="1"/>
<rect x="224" y="105" width="22" height="15" rx="2" fill="#2a78d6" stroke="none" stroke-width="1"/>
<rect x="248" y="105" width="22" height="15" rx="2" fill="#2a78d6" stroke="none" stroke-width="1"/>
<rect x="272" y="105" width="22" height="15" rx="2" fill="#2a78d6" stroke="none" stroke-width="1"/>
<text x="104" y="140" font-size="10" fill="#898781">128x128 per workgroup; each thread owns an 8x8 REGISTER tile (orange) -- 64 accumulators, 162 VGPRs, no spill</text>
<text x="94" y="180" font-size="10.5" text-anchor="end" fill="#52514e">K-loop</text>
<rect x="104" y="166" width="26" height="20" rx="3" fill="#2a78d6" stroke="none" stroke-width="1"/>
<text x="117.0" y="180" font-size="9.5" text-anchor="middle" fill="#fcfcfb">barrier</text>
<rect x="134" y="166" width="26" height="20" rx="3" fill="#eb6834" stroke="none" stroke-width="1"/>
<text x="147.0" y="180" font-size="9.5" text-anchor="middle" fill="#fcfcfb">load k+1</text>
<rect x="164" y="166" width="26" height="20" rx="3" fill="#2a78d6" stroke="none" stroke-width="1"/>
<text x="177.0" y="180" font-size="9.5" text-anchor="middle" fill="#fcfcfb">math(p)</text>
<rect x="194" y="166" width="26" height="20" rx="3" fill="#eb6834" stroke="none" stroke-width="1"/>
<text x="207.0" y="180" font-size="9.5" text-anchor="middle" fill="#fcfcfb">-&gt;LDS(1-p)</text>
<text x="104" y="204" font-size="10" fill="#898781">LDS ping-pong: write buffer 1-p while reading p, so one barrier per tile instead of two</text>
<rect x="104" y="218" width="11" height="11" rx="2.5" fill="#2a78d6"/>
<text x="120" y="227" font-size="9.5" fill="#52514e">touched</text>
<rect x="164.5" y="218" width="11" height="11" rx="2.5" fill="#eb6834"/>
<text x="180.5" y="227" font-size="9.5" fill="#52514e">the step's subject</text>
<rect x="285.5" y="218" width="11" height="11" rx="2.5" fill="#fcfcfb" stroke="#c3c2b7" stroke-width="1"/>
<text x="301.5" y="227" font-size="9.5" fill="#52514e">other threads</text>
</svg>