<svg xmlns="http://www.w3.org/2000/svg" width="1080" height="198" viewBox="0 0 1080 198" font-family="system-ui,-apple-system,'Segoe UI',sans-serif">
<rect width="1080" height="198" fill="#fcfcfb"/>
<text x="0" y="17" font-size="13" font-weight="600" fill="#0b0b0b">spmm v2 -- four output columns per thread</text>
<text x="0" y="34" font-size="10.5" fill="#52514e">the sparse walk is unchanged; only the dense side gets wider</text>
<text x="94" y="68" font-size="10.5" text-anchor="end" fill="#52514e">A row nnz</text>
<rect x="104" y="54" width="26" height="20" rx="3" fill="#2a78d6" stroke="none" stroke-width="1"/>
<text x="117.0" y="68" font-size="9.5" text-anchor="middle" fill="#fcfcfb">nz0</text>
<rect x="134" y="54" width="26" height="20" rx="3" fill="#2a78d6" stroke="none" stroke-width="1"/>
<text x="147.0" y="68" font-size="9.5" text-anchor="middle" fill="#fcfcfb">nz1</text>
<rect x="164" y="54" width="26" height="20" rx="3" fill="#2a78d6" stroke="none" stroke-width="1"/>
<text x="177.0" y="68" font-size="9.5" text-anchor="middle" fill="#fcfcfb">nz2</text>
<rect x="194" y="54" width="26" height="20" rx="3" fill="#2a78d6" stroke="none" stroke-width="1"/>
<text x="207.0" y="68" font-size="9.5" text-anchor="middle" fill="#fcfcfb">nz3</text>
<path d="M105 60 V55 H219 V60" fill="none" stroke="#52514e" stroke-width="1.2"/>
<text x="162" y="51" font-size="9" text-anchor="middle" fill="#52514e">walked serially -- same row for every thread in the block</text>
<text x="94" y="118" font-size="10.5" text-anchor="end" fill="#52514e">C columns</text>
<rect x="104" y="104" width="26" height="20" rx="3" fill="#eb6834" stroke="none" stroke-width="1"/>
<text x="117.0" y="118" font-size="9.5" text-anchor="middle" fill="#fcfcfb">t0</text>
<rect x="134" y="104" width="26" height="20" rx="3" fill="#eb6834" stroke="none" stroke-width="1"/>
<rect x="164" y="104" width="26" height="20" rx="3" fill="#eb6834" stroke="none" stroke-width="1"/>
<rect x="194" y="104" width="26" height="20" rx="3" fill="#eb6834" stroke="none" stroke-width="1"/>
<rect x="224" y="104" width="26" height="20" rx="3" fill="#eb6834" stroke="none" stroke-width="1"/>
<text x="237.0" y="118" font-size="9.5" text-anchor="middle" fill="#fcfcfb">t1</text>
<rect x="254" y="104" width="26" height="20" rx="3" fill="#eb6834" stroke="none" stroke-width="1"/>
<rect x="284" y="104" width="26" height="20" rx="3" fill="#eb6834" stroke="none" stroke-width="1"/>
<rect x="314" y="104" width="26" height="20" rx="3" fill="#eb6834" stroke="none" stroke-width="1"/>
<rect x="344" y="104" width="26" height="20" rx="3" fill="#eb6834" stroke="none" stroke-width="1"/>
<text x="357.0" y="118" font-size="9.5" text-anchor="middle" fill="#fcfcfb">t2</text>
<rect x="374" y="104" width="26" height="20" rx="3" fill="#eb6834" stroke="none" stroke-width="1"/>
<rect x="404" y="104" width="26" height="20" rx="3" fill="#eb6834" stroke="none" stroke-width="1"/>
<rect x="434" y="104" width="26" height="20" rx="3" fill="#eb6834" stroke="none" stroke-width="1"/>
<rect x="464" y="104" width="26" height="20" rx="3" fill="#eb6834" stroke="none" stroke-width="1"/>
<text x="477.0" y="118" font-size="9.5" text-anchor="middle" fill="#fcfcfb">t3</text>
<rect x="494" y="104" width="26" height="20" rx="3" fill="#eb6834" stroke="none" stroke-width="1"/>
<rect x="524" y="104" width="26" height="20" rx="3" fill="#eb6834" stroke="none" stroke-width="1"/>
<rect x="554" y="104" width="26" height="20" rx="3" fill="#eb6834" stroke="none" stroke-width="1"/>
<rect x="584" y="104" width="26" height="20" rx="3" fill="#eb6834" stroke="none" stroke-width="1"/>
<text x="597.0" y="118" font-size="9.5" text-anchor="middle" fill="#fcfcfb">t4</text>
<rect x="614" y="104" width="26" height="20" rx="3" fill="#eb6834" stroke="none" stroke-width="1"/>
<rect x="644" y="104" width="26" height="20" rx="3" fill="#eb6834" stroke="none" stroke-width="1"/>
<rect x="674" y="104" width="26" height="20" rx="3" fill="#eb6834" stroke="none" stroke-width="1"/>
<rect x="704" y="104" width="26" height="20" rx="3" fill="#eb6834" stroke="none" stroke-width="1"/>
<text x="717.0" y="118" font-size="9.5" text-anchor="middle" fill="#fcfcfb">t5</text>
<rect x="734" y="104" width="26" height="20" rx="3" fill="#eb6834" stroke="none" stroke-width="1"/>
<rect x="764" y="104" width="26" height="20" rx="3" fill="#eb6834" stroke="none" stroke-width="1"/>
<rect x="794" y="104" width="26" height="20" rx="3" fill="#eb6834" stroke="none" stroke-width="1"/>
<rect x="824" y="104" width="26" height="20" rx="3" fill="#eb6834" stroke="none" stroke-width="1"/>
<text x="837.0" y="118" font-size="9.5" text-anchor="middle" fill="#fcfcfb">t6</text>
<rect x="854" y="104" width="26" height="20" rx="3" fill="#eb6834" stroke="none" stroke-width="1"/>
<rect x="884" y="104" width="26" height="20" rx="3" fill="#eb6834" stroke="none" stroke-width="1"/>
<rect x="914" y="104" width="26" height="20" rx="3" fill="#eb6834" stroke="none" stroke-width="1"/>
<rect x="944" y="104" width="26" height="20" rx="3" fill="#eb6834" stroke="none" stroke-width="1"/>
<text x="957.0" y="118" font-size="9.5" text-anchor="middle" fill="#fcfcfb">t7</text>
<rect x="974" y="104" width="26" height="20" rx="3" fill="#eb6834" stroke="none" stroke-width="1"/>
<rect x="1004" y="104" width="26" height="20" rx="3" fill="#eb6834" stroke="none" stroke-width="1"/>
<rect x="1034" y="104" width="26" height="20" rx="3" fill="#eb6834" stroke="none" stroke-width="1"/>
<path d="M105 110 V105 H219 V110" fill="none" stroke="#52514e" stroke-width="1.2"/>
<text x="162" y="101" font-size="9" text-anchor="middle" fill="#52514e">dwordx4</text>
<path d="M225 110 V105 H339 V110" fill="none" stroke="#52514e" stroke-width="1.2"/>
<text x="282" y="101" font-size="9" text-anchor="middle" fill="#52514e"></text>
<path d="M345 110 V105 H459 V110" fill="none" stroke="#52514e" stroke-width="1.2"/>
<text x="402" y="101" font-size="9" text-anchor="middle" fill="#52514e"></text>
<path d="M465 110 V105 H579 V110" fill="none" stroke="#52514e" stroke-width="1.2"/>
<text x="522" y="101" font-size="9" text-anchor="middle" fill="#52514e"></text>
<path d="M585 110 V105 H699 V110" fill="none" stroke="#52514e" stroke-width="1.2"/>
<text x="642" y="101" font-size="9" text-anchor="middle" fill="#52514e"></text>
<path d="M705 110 V105 H819 V110" fill="none" stroke="#52514e" stroke-width="1.2"/>
<text x="762" y="101" font-size="9" text-anchor="middle" fill="#52514e"></text>
<path d="M825 110 V105 H939 V110" fill="none" stroke="#52514e" stroke-width="1.2"/>
<text x="882" y="101" font-size="9" text-anchor="middle" fill="#52514e"></text>
<path d="M945 110 V105 H1059 V110" fill="none" stroke="#52514e" stroke-width="1.2"/>
<text x="1002" y="101" font-size="9" text-anchor="middle" fill="#52514e"></text>
<text x="104" y="152" font-size="10" fill="#898781">each thread owns 4 output column(s); the dense side is where essentially all the traffic is</text>
<rect x="104" y="166" width="11" height="11" rx="2.5" fill="#2a78d6"/>
<text x="120" y="175" font-size="9.5" fill="#52514e">sparse side</text>
<rect x="186.5" y="166" width="11" height="11" rx="2.5" fill="#eb6834"/>
<text x="202.5" y="175" font-size="9.5" fill="#52514e">dense side / staged</text>
</svg>